# xmcd
#
# Track frame offsets:
#	150
#	17868
#	32022
#	49237
#	63915
#
# Disc length: 1076 seconds
#
# Revision: 1
# Processed by: cddbd v1.5.2PL0 Copyright (c) Steve Scherf et al.
# Submitted via: audiograbber 1.83.01
#
DISCID=3b043205
DTITLE=Michael Carey - Michael Carey
DYEAR=2001
DGENRE=Country
TTITLE0=Loneliness Road
TTITLE1=Love on Wheels
TTITLE2=To Be Loved Like This
TTITLE3=High Society Woman
TTITLE4=Looking Forward to Looking Back
EXTD=
EXTT0=
EXTT1=
EXTT2=
EXTT3=
EXTT4=
PLAYORDER=
